<svg width="5770" height="5770" viewBox="0 0 5770 5770" fill="none" xmlns="http://www.w3.org/2000/svg">
<circle cx="2885" cy="2885" r="2885" transform="matrix(-1 0 0 1 5770 0)" fill="black"/>
<path fill-rule="evenodd" clip-rule="evenodd" d="M4511.48 2885C4511.48 2856.56 4500.08 2829.29 4479.8 2809.18C4459.51 2789.07 4432 2777.77 4403.31 2777.77H1851.99L2532.82 2103.07C2553.13 2082.93 2564.54 2055.62 2564.54 2027.15C2564.54 1998.67 2553.13 1971.36 2532.82 1951.23C2512.5 1931.09 2484.96 1919.78 2456.23 1919.78C2427.51 1919.78 2399.96 1931.09 2379.65 1951.23L1514.28 2809.08C1504.2 2819.04 1496.21 2830.87 1490.76 2843.9C1485.3 2856.93 1482.5 2870.9 1482.5 2885C1482.5 2899.1 1485.3 2913.07 1490.76 2926.1C1496.21 2939.13 1504.2 2950.96 1514.28 2960.92L2379.65 3818.77C2399.96 3838.91 2427.51 3850.22 2456.23 3850.22C2484.96 3850.22 2512.5 3838.91 2532.82 3818.77C2553.13 3798.64 2564.54 3771.33 2564.54 3742.85C2564.54 3714.38 2553.13 3687.07 2532.82 3666.93L1851.99 2992.23H4403.31C4432 2992.23 4459.51 2980.93 4479.8 2960.82C4500.08 2940.71 4511.48 2913.44 4511.48 2885Z" fill="white"/>
</svg>
