<svg width="5771" height="5770" viewBox="0 0 5771 5770" fill="none" xmlns="http://www.w3.org/2000/svg">
<circle cx="2885.91" cy="2885" r="2885" fill="white"/>
<path fill-rule="evenodd" clip-rule="evenodd" d="M1259.43 2885C1259.43 2856.56 1270.83 2829.29 1291.12 2809.18C1311.4 2789.07 1338.92 2777.77 1367.6 2777.77H3918.93L3238.1 2103.07C3217.79 2082.93 3206.38 2055.62 3206.38 2027.15C3206.38 1998.67 3217.79 1971.36 3238.1 1951.23C3258.41 1931.09 3285.96 1919.78 3314.68 1919.78C3343.41 1919.78 3370.96 1931.09 3391.27 1951.23L4256.64 2809.08C4266.71 2819.04 4274.7 2830.87 4280.16 2843.9C4285.61 2856.93 4288.42 2870.9 4288.42 2885C4288.42 2899.1 4285.61 2913.07 4280.16 2926.1C4274.7 2939.13 4266.71 2950.96 4256.64 2960.92L3391.27 3818.77C3370.96 3838.91 3343.41 3850.22 3314.68 3850.22C3285.96 3850.22 3258.41 3838.91 3238.1 3818.77C3217.79 3798.64 3206.38 3771.33 3206.38 3742.85C3206.38 3714.38 3217.79 3687.07 3238.1 3666.93L3918.93 2992.23H1367.6C1338.92 2992.23 1311.4 2980.93 1291.12 2960.82C1270.83 2940.71 1259.43 2913.44 1259.43 2885Z" fill="black"/>
</svg>
